<svg width="20" height="20" viewBox="0 0 20 20" fill="none" xmlns="http://www.w3.org/2000/svg">
<g clip-path="url(#clip0_179_887)">
<path d="M10 20C15.5228 20 20 15.5228 20 10C20 4.47715 15.5228 0 10 0C4.47715 0 0 4.47715 0 10C0 15.5228 4.47715 20 10 20Z" fill="#F0F0F0"/>
<path d="M9.99999 0C6.45429 0 3.33983 1.84543 1.56421 4.62809L15.1251 18.5879C18.0448 16.8417 20 13.6493 20 10C20 4.47719 15.5228 0 9.99999 0Z" fill="#FFDA44"/>
<path d="M19.9999 10C19.9999 7.40539 19.0117 5.0418 17.3912 3.26453V16.7355C19.0117 14.9582 19.9999 12.5946 19.9999 10Z" fill="#0052B4"/>
<path d="M12.4918 18.8232L13.5392 18.8225L13.8623 17.8261L14.1866 18.8221L14.712 18.8218C15.0342 18.6493 15.3458 18.4598 15.6456 18.2543L1.74566 4.35434C1.5166 4.68856 1.3077 5.03754 1.11984 5.39926L1.24336 5.77864L2.29082 5.77797L1.44379 6.39418L1.76809 7.39024L0.920273 6.77508L0.414609 7.14289C0.145039 8.04821 0 9.00715 0 10C0 15.5228 4.47719 20 10 20C11.1677 20 12.2884 19.7995 13.3301 19.4316L12.4918 18.8232ZM2.23043 9.56524L2.55348 8.56883L1.70574 7.9536L2.7532 7.95293L3.07629 6.95649L3.40059 7.95254L4.44805 7.95188L3.60098 8.56809L3.92527 9.56414L3.07746 8.94899L2.23043 9.56524ZM4.38766 11.7391L4.7107 10.7427L3.86297 10.1275L4.91043 10.1268L5.23352 9.13039L5.55781 10.1264L6.60527 10.1258L5.75824 10.742L6.08254 11.738L5.23473 11.1229L4.38766 11.7391ZM6.54484 13.9131L6.86789 12.9166L6.02016 12.3014L7.06762 12.3007L7.3907 11.3043L7.715 12.3004L8.76246 12.2997L7.91543 12.9159L8.23973 13.912L7.39191 13.2967L6.54484 13.9131ZM9.5491 15.4707L8.70203 16.087L9.02508 15.0905L8.17734 14.4753L9.2248 14.4747L9.54793 13.4782L9.87223 14.4743L10.9197 14.4736L10.0727 15.0898L10.397 16.0859L9.5491 15.4707ZM10.8593 18.2609L11.1823 17.2645L10.3346 16.6492L11.382 16.6486L11.7051 15.6521L12.0294 16.6482L13.0769 16.6475L12.2298 17.2637L12.5541 18.2598L11.7063 17.6445L10.8593 18.2609Z" fill="#0052B4"/>
</g>
<defs>
<clipPath id="clip0_179_887">
<rect width="20" height="20" fill="white"/>
</clipPath>
</defs>
</svg>
