<svg width="20" height="20" viewBox="0 0 20 20" fill="none" xmlns="http://www.w3.org/2000/svg">
<path d="M10 18.9062C14.9188 18.9062 18.9062 14.9188 18.9062 10C18.9062 5.08121 14.9188 1.09375 10 1.09375C5.08121 1.09375 1.09375 5.08121 1.09375 10C1.09375 14.9188 5.08121 18.9062 10 18.9062Z" fill="#FEDA2C"/>
<path d="M10 16.8657C13.7918 16.8657 16.8657 13.7918 16.8657 10C16.8657 6.20824 13.7918 3.1344 10 3.1344C6.20824 3.1344 3.1344 6.20824 3.1344 10C3.1344 13.7918 6.20824 16.8657 10 16.8657Z" fill="#FCAA17"/>
<path d="M9.99996 4.72375L11.5614 7.88751L15.0526 8.39485L12.5264 10.8575L13.1228 14.3347L9.99996 12.693L6.87714 14.3347L7.47355 10.8575L4.94714 8.39485L8.43855 7.88751L9.99996 4.72375Z" fill="#FEDA2C"/>
</svg>
