<svg width="32" height="32" viewBox="0 0 32 32" fill="none" xmlns="http://www.w3.org/2000/svg">
<g clip-path="url(#clip0_19_144)">
<path fill-rule="evenodd" clip-rule="evenodd" d="M7.82909 5.36198H24.1703C25.7914 5.36198 27.1178 6.73349 27.1178 8.40961V26.616C27.1178 27.4512 26.4571 28.1398 25.6441 28.1398H6.35562C5.54235 28.1398 4.88191 27.4515 4.88191 26.616V8.40961C4.88191 6.73349 6.20808 5.36198 7.82909 5.36198ZM20.1808 4.57183L25.0984 0.186782C25.4041 -0.0897096 25.8679 -0.0558636 26.1355 0.265922C26.3974 0.581984 26.3647 1.06155 26.059 1.33257L22.4295 4.57183H20.1808ZM11.3387 4.57183L16.2564 0.186782C16.5621 -0.0897096 17.0261 -0.0558636 17.2935 0.265922C17.5556 0.581984 17.5229 1.06155 17.2172 1.33257L13.5877 4.57183H11.3387ZM4.20486 12.9527H3.47342V16.0003C3.47342 16.4179 3.14056 16.7621 2.73669 16.7621C2.32728 16.7621 1.99995 16.4179 1.99995 16.0003V12.1909C1.99995 11.7733 2.32753 11.4291 2.73669 11.4291H4.20486V12.9527ZM27.7893 12.9527H27.7837V11.4289H29.263C29.6668 11.4289 30 11.7731 30 12.1907V16.0001C30 16.4177 29.6668 16.7619 29.263 16.7619C28.8536 16.7619 28.5262 16.4177 28.5262 16.0001V12.9527H27.7893ZM21.1577 28.9524H25.5788V30.4762C25.5788 31.3114 24.9131 32 24.1051 32H22.6314C21.8181 32 21.1577 31.3114 21.1577 30.4762V28.9524ZM6.42084 28.9524H10.842V30.4762C10.842 31.3114 10.176 32 9.36826 32H7.89455C7.08128 32 6.42084 31.3114 6.42084 30.4762V28.9524ZM22.6586 22.0107C23.4719 22.0107 24.1323 22.6936 24.1323 23.5345C24.1323 24.3755 23.4719 25.0583 22.6586 25.0583C21.8398 25.0583 21.1849 24.3755 21.1849 23.5345C21.1849 22.6936 21.84 22.0107 22.6586 22.0107ZM9.34106 22.0107C10.1543 22.0107 10.8148 22.6936 10.8148 23.5345C10.8148 24.3755 10.1543 25.0583 9.34106 25.0583C8.52779 25.0583 7.86735 24.3755 7.86735 23.5345C7.86735 22.6936 8.52779 22.0107 9.34106 22.0107ZM9.34106 8.38149H22.6586C23.4663 8.38149 24.1323 9.06438 24.1323 9.9053V18.2862C24.1323 18.7038 23.7992 19.0479 23.3953 19.0479H8.60433C8.20046 19.0479 7.86735 18.7038 7.86735 18.2862V9.90506C7.86735 9.06438 8.53333 8.38149 9.34106 8.38149Z" fill="#06A656"/>
</g>
<defs>
<clipPath id="clip0_19_144">
<rect width="32" height="32" fill="white"/>
</clipPath>
</defs>
</svg>
