<svg width="32" height="32" viewBox="0 0 32 32" fill="none" xmlns="http://www.w3.org/2000/svg">
<g clip-path="url(#clip0_52_849)">
<path fill-rule="evenodd" clip-rule="evenodd" d="M29.0625 30.4868V30.6478C29.0625 30.9246 28.8359 31.1512 28.5591 31.1512H27.8656C27.5887 31.1512 27.3621 30.9246 27.3621 30.6478V30.4868H29.0625ZM17.2134 19.5263H17.3563V21.7336H17.2134C17.0227 21.7336 16.8666 21.5776 16.8666 21.3868V19.8731C16.8667 19.6823 17.0227 19.5263 17.2134 19.5263ZM30.6666 19.5263H30.8094C31.0002 19.5263 31.1562 19.6823 31.1562 19.8731V21.3868C31.1562 21.5776 31.0002 21.7336 30.8094 21.7336H30.6666V19.5263ZM0.84375 18.5531H2.30087V17.414H4.66644V18.5531H11.0024V17.414H13.3679V18.5531H14.825V20.2005H0.84375V18.5531ZM5.15781 0.848816H12.9052C14.251 0.848816 15.4057 1.53138 16.0546 2.71044C18.3453 6.87319 21.1001 9.10813 28.8608 11.3769C29.0232 11.4243 29.1308 11.5677 29.1308 11.7369V15.4738C29.1308 15.6804 28.9623 15.8488 28.7558 15.8488H4.33588C2.4125 15.8488 0.843813 14.2801 0.843813 12.3567V7.185C0.843813 6.86163 0.879375 6.58557 0.9615 6.27275L1.68075 3.53138C2.10106 1.92907 3.50125 0.848816 5.15781 0.848816ZM16.3169 7.35344V10.5194C16.3169 10.6698 16.3996 10.7983 16.5364 10.8607C16.9642 11.0555 17.3954 11.2427 17.8298 11.4223C18.0778 11.5248 18.3481 11.3441 18.3481 11.0758V8.53994C18.3481 8.42288 18.3 8.32213 18.209 8.2485C17.7688 7.89271 17.3531 7.50774 16.9646 7.09619C16.7316 6.84913 16.3169 7.01382 16.3169 7.35344ZM27.6928 13.9421V12.8033C27.6928 12.6342 27.5854 12.4909 27.4231 12.4434C27.0935 12.3471 26.7731 12.2508 26.4613 12.1544C26.4051 12.1368 26.3457 12.1327 26.2877 12.1424C26.2297 12.1521 26.1748 12.1753 26.1275 12.2102C26.0801 12.2451 26.0417 12.2907 26.0153 12.3433C25.9889 12.3958 25.9753 12.4538 25.9755 12.5126V13.7166C25.9755 13.8921 26.0923 14.0403 26.2631 14.0812C26.5865 14.1587 26.9105 14.2343 27.2349 14.3078C27.2898 14.3205 27.3469 14.3206 27.4019 14.3081C27.4568 14.2956 27.5083 14.2709 27.5523 14.2357C27.5964 14.2005 27.6319 14.1558 27.6562 14.105C27.6805 14.0541 27.6931 13.9984 27.6928 13.9421ZM22.756 11.3944V12.8655C22.756 13.0348 22.8636 13.1782 23.0262 13.2255C23.3847 13.3298 23.7442 13.4311 24.1044 13.5292C24.1601 13.5446 24.2185 13.5469 24.2752 13.5359C24.3319 13.525 24.3853 13.501 24.4311 13.466C24.477 13.4309 24.5141 13.3857 24.5396 13.3339C24.5651 13.2821 24.5782 13.2251 24.578 13.1674V11.7984C24.578 11.6373 24.4816 11.5001 24.3299 11.4456C23.9742 11.3178 23.6205 11.1845 23.2689 11.0457C23.0217 10.9479 22.756 11.1286 22.756 11.3944ZM19.5364 9.86482V11.8234C19.5364 11.9844 19.6328 12.1216 19.7844 12.1762C20.1778 12.3178 20.5729 12.4546 20.9697 12.5864C21.026 12.6054 21.0861 12.6107 21.1449 12.6018C21.2037 12.5929 21.2596 12.5701 21.3078 12.5354C21.356 12.5006 21.3953 12.4548 21.4223 12.4018C21.4493 12.3488 21.4632 12.2901 21.463 12.2306V10.4944C21.463 10.3482 21.3852 10.223 21.2541 10.1582C20.8625 9.96528 20.4775 9.75926 20.0998 9.5405C19.849 9.39488 19.5364 9.57475 19.5364 9.86482ZM5.36931 2.59238C4.43775 2.59238 3.66819 3.18675 3.43181 4.08882L2.92075 6.039C2.84106 6.343 3.0675 6.63763 3.38206 6.63763H12.8663C12.9355 6.63788 13.004 6.62301 13.0669 6.59405C13.1297 6.56509 13.1856 6.52274 13.2304 6.46997C13.2752 6.41719 13.308 6.35527 13.3264 6.28851C13.3448 6.22176 13.3484 6.15179 13.3369 6.0835L13.0126 4.08888C12.863 3.16838 12.0066 2.59244 11.0751 2.59244L5.36931 2.59238ZM3.9 9.097C3.13619 9.097 2.51706 9.71619 2.51706 10.4799C2.51706 11.2437 3.13619 11.8629 3.9 11.8629C4.66375 11.8629 5.28294 11.2437 5.28294 10.4799C5.28294 9.71619 4.66375 9.097 3.9 9.097ZM11.9219 9.097C11.1582 9.097 10.539 9.71619 10.539 10.4799C10.539 11.2437 11.1581 11.8629 11.9219 11.8629C12.6858 11.8629 13.3049 11.2437 13.3049 10.4799C13.3049 9.71619 12.6857 9.097 11.9219 9.097ZM19.3927 17.3229H23.5114V24.1811H18.3562V18.3594C18.3562 17.7894 18.8226 17.3229 19.3927 17.3229ZM24.5114 17.3229H28.6302C29.2003 17.3229 29.6667 17.7894 29.6667 18.3595V24.1812H24.5114V17.3229ZM29.6667 25.1811V29.4869H18.3562V25.1811H29.6667ZM27.4986 26.4639C27.0181 26.4639 26.6285 26.8535 26.6285 27.3339C26.6285 27.8144 27.0181 28.204 27.4986 28.204C27.9791 28.204 28.3686 27.8144 28.3686 27.3339C28.3686 26.8535 27.9791 26.4639 27.4986 26.4639ZM20.5243 26.4639C20.0438 26.4639 19.6542 26.8535 19.6542 27.3339C19.6542 27.8144 20.0438 28.204 20.5243 28.204C21.0048 28.204 21.3944 27.8144 21.3944 27.3339C21.3944 26.8535 21.0049 26.4639 20.5243 26.4639ZM23.0811 27.834H24.9418C25.0744 27.834 25.2016 27.7813 25.2954 27.6876C25.3891 27.5938 25.4418 27.4666 25.4418 27.334C25.4418 27.2014 25.3891 27.0742 25.2954 26.9804C25.2016 26.8867 25.0744 26.834 24.9418 26.834H23.0811C22.9485 26.834 22.8213 26.8867 22.7276 26.9804C22.6338 27.0742 22.5811 27.2014 22.5811 27.334C22.5811 27.4666 22.6338 27.5938 22.7276 27.6876C22.8213 27.7813 22.9485 27.834 23.0811 27.834ZM20.6607 30.4868V30.6478C20.6607 30.9246 20.4342 31.1512 20.1573 31.1512H19.4638C19.1869 31.1512 18.9604 30.9246 18.9604 30.6478V30.4868H20.6607Z" fill="#0096F2"/>
</g>
<defs>
<clipPath id="clip0_52_849">
<rect width="32" height="32" fill="white"/>
</clipPath>
</defs>
</svg>
