<svg width="32" height="32" viewBox="0 0 32 32" fill="none" xmlns="http://www.w3.org/2000/svg">
<g clip-path="url(#clip0_19_137)">
<path d="M16 0C9.26314 0 2.52632 0.842132 2.52632 6.73682V22.7369C2.52632 25.9874 5.17051 28.6316 8.42109 28.6316L5.89477 31.1579V32.0001H9.65054L13.019 28.6316H19.3685L22.7369 32H26.1053V31.1579L23.579 28.6315C26.8295 28.6315 29.4738 25.9874 29.4738 22.7368V6.73682C29.4737 0.842132 23.4442 0 16 0ZM8.42109 25.2632C7.02317 25.2632 5.89477 24.1348 5.89477 22.7369C5.89477 21.3389 7.02317 20.2105 8.42109 20.2105C9.81901 20.2105 10.9474 21.3389 10.9474 22.7369C10.9474 24.1348 9.81893 25.2632 8.42109 25.2632ZM14.3158 13.4737H5.89477V6.73682H14.3159V13.4737H14.3158ZM23.579 25.2632C22.1811 25.2632 21.0527 24.1348 21.0527 22.7369C21.0527 21.3389 22.1811 20.2105 23.579 20.2105C24.9769 20.2105 26.1053 21.3389 26.1053 22.7369C26.1053 24.1348 24.9768 25.2632 23.579 25.2632ZM26.1053 13.4737H17.6842V6.73682H26.1053V13.4737Z" fill="#9481FF"/>
</g>
<defs>
<clipPath id="clip0_19_137">
<rect width="32" height="32" fill="white"/>
</clipPath>
</defs>
</svg>
