<svg width="32" height="32" viewBox="0 0 32 32" fill="none" xmlns="http://www.w3.org/2000/svg">
<g clip-path="url(#clip0_19_130)">
<path d="M29.159 7.82447C28.8977 5.27007 28.4815 3.28121 27.823 2.49947C25.108 -0.714831 6.08984 -0.950057 3.93054 2.49947C3.40234 3.34459 3.03189 5.32641 2.78328 7.82869C2.39113 7.87374 2.02917 8.06123 1.76613 8.35555C1.5031 8.64987 1.3573 9.03054 1.35643 9.42528V12.5544C1.35692 12.8841 1.45844 13.2057 1.64733 13.4759C1.83621 13.7461 2.10338 13.952 2.41283 14.0657C2.26705 18.9942 2.38537 24.1361 2.60369 26.6933C2.60369 28.6674 3.92984 28.3399 3.92984 28.3399H5.17288V30.471C5.17288 31.3162 6.04406 32 7.11737 32C8.19209 32 9.06327 31.3162 9.06327 30.471V28.3399H23.5248V30.471C23.5248 31.3162 24.3953 32 25.47 32C26.5433 32 27.4145 31.3162 27.4145 30.471V28.3399H27.823C27.823 28.3399 29.3836 28.554 29.4836 27.6244C29.4836 25.0742 29.6442 19.4224 29.5118 14.0876C29.8394 13.9863 30.1261 13.7829 30.3297 13.507C30.5334 13.2311 30.6434 12.8973 30.6436 12.5544V9.42528C30.6428 9.02063 30.4896 8.63113 30.2144 8.33443C29.9393 8.03774 29.5624 7.85565 29.159 7.82447ZM8.57521 2.95795H23.1783V5.16725H8.57521V2.95795ZM8.78368 25.8235C8.23313 25.8235 7.70513 25.6048 7.31584 25.2155C6.92654 24.8262 6.70784 24.2983 6.70784 23.7477C6.70784 23.1972 6.92654 22.6692 7.31584 22.2799C7.70513 21.8906 8.23313 21.6719 8.78368 21.6719C9.33422 21.6719 9.86222 21.8906 10.2515 22.2799C10.6408 22.6692 10.8595 23.1972 10.8595 23.7477C10.8595 24.2983 10.6408 24.8262 10.2515 25.2155C9.86222 25.6048 9.33422 25.8235 8.78368 25.8235ZM23.1001 25.8235C22.8212 25.8339 22.5431 25.788 22.2824 25.6884C22.0216 25.5889 21.7837 25.4378 21.5827 25.2442C21.3816 25.0505 21.2217 24.8184 21.1125 24.5616C21.0032 24.3048 20.9468 24.0286 20.9468 23.7495C20.9467 23.4704 21.0028 23.1942 21.1119 22.9373C21.221 22.6804 21.3808 22.4481 21.5816 22.2544C21.7825 22.0607 22.0204 21.9094 22.2811 21.8097C22.5417 21.7099 22.8198 21.6638 23.0987 21.674C23.6358 21.6936 24.1443 21.9207 24.5173 22.3075C24.8904 22.6943 25.099 23.2107 25.0991 23.7481C25.0993 24.2855 24.8911 24.802 24.5183 25.1891C24.1455 25.5761 23.6371 25.8036 23.1001 25.8235ZM25.739 16.7384H6.01448V6.39268H25.739V16.7384Z" fill="#F36887"/>
</g>
<defs>
<clipPath id="clip0_19_130">
<rect width="32" height="32" fill="white"/>
</clipPath>
</defs>
</svg>
