<svg width="45" height="36" viewBox="0 0 45 36" fill="none" xmlns="http://www.w3.org/2000/svg">
<g clip-path="url(#clip0_21_3005)">
<path d="M8.15639 35.9211V33.532C8.15639 32.618 7.61596 32.0196 6.68822 32.0196C6.22435 32.0196 5.71995 32.1773 5.37317 32.6969C5.10295 32.2608 4.71564 32.0196 4.13468 32.0196C3.74737 32.0196 3.36006 32.1402 3.05381 32.5763V32.0985H2.24316V35.9211H3.05381V33.8103C3.05381 33.133 3.40059 32.8129 3.94102 32.8129C4.48145 32.8129 4.75167 33.1701 4.75167 33.8103V35.9211H5.56232V33.8103C5.56232 33.133 5.94963 32.8129 6.44953 32.8129C6.98996 32.8129 7.26018 33.1701 7.26018 33.8103V35.9211H8.15639ZM20.181 32.0985H18.866V30.9433H18.0553V32.0985H17.3212V32.8546H18.0553V34.6082C18.0553 35.4851 18.4021 36 19.3298 36C19.6766 36 20.0639 35.8794 20.3341 35.7216L20.0999 35.0026C19.8658 35.1603 19.5955 35.2021 19.4019 35.2021C19.0146 35.2021 18.8615 34.9608 18.8615 34.5665V32.8546H20.1765V32.0985H20.181ZM27.0625 32.0149C26.5986 32.0149 26.2879 32.2562 26.0942 32.5716V32.0938H25.2836V35.9165H26.0942V33.7639C26.0942 33.1283 26.3645 32.7665 26.8689 32.7665C27.022 32.7665 27.2156 32.8082 27.3733 32.8454L27.6075 32.0474C27.4453 32.0149 27.2156 32.0149 27.0625 32.0149ZM16.6637 32.4139C16.2764 32.1356 15.736 32.0149 15.155 32.0149C14.2273 32.0149 13.6103 32.4928 13.6103 33.249C13.6103 33.8845 14.0741 34.2464 14.8848 34.3624L15.2721 34.4041C15.6954 34.483 15.9296 34.6036 15.9296 34.8031C15.9296 35.0814 15.6189 35.2809 15.0784 35.2809C14.538 35.2809 14.1102 35.0814 13.8399 34.882L13.4526 35.5175C13.876 35.8376 14.4569 35.9954 15.0379 35.9954C16.1188 35.9954 16.7403 35.4758 16.7403 34.7613C16.7403 34.084 16.2359 33.7268 15.4657 33.6062L15.0784 33.5644C14.7317 33.5227 14.4614 33.4438 14.4614 33.2072C14.4614 32.9289 14.7317 32.7711 15.1595 32.7711C15.6234 32.7711 16.0872 32.9706 16.3214 33.0912L16.6637 32.4139ZM38.2315 32.0149C37.7676 32.0149 37.4568 32.2562 37.2632 32.5716V32.0938H36.4525V35.9165H37.2632V33.7639C37.2632 33.1283 37.5334 32.7665 38.0378 32.7665C38.1909 32.7665 38.3846 32.8082 38.5422 32.8454L38.7764 32.0567C38.6188 32.0149 38.3891 32.0149 38.2315 32.0149ZM27.8732 34.0098C27.8732 35.1649 28.6478 36 29.8457 36C30.3862 36 30.7735 35.8794 31.1608 35.5639L30.7735 34.8866C30.4627 35.1278 30.1565 35.2438 29.8052 35.2438C29.1477 35.2438 28.6838 34.766 28.6838 34.0098C28.6838 33.2907 29.1477 32.8129 29.8052 32.7758C30.152 32.7758 30.4627 32.8964 30.7735 33.133L31.1608 32.4557C30.7735 32.1356 30.3862 32.0196 29.8457 32.0196C28.6478 32.0149 27.8732 32.8546 27.8732 34.0098ZM35.3717 34.0098V32.0985H34.561V32.5763C34.2908 32.2191 33.9035 32.0196 33.3991 32.0196C32.3543 32.0196 31.5436 32.8546 31.5436 34.0098C31.5436 35.1649 32.3543 36 33.3991 36C33.9395 36 34.3268 35.8005 34.561 35.4433V35.9211H35.3717V34.0098ZM32.3948 34.0098C32.3948 33.3325 32.8181 32.7758 33.5162 32.7758C34.1737 32.7758 34.6376 33.2954 34.6376 34.0098C34.6376 34.6871 34.1737 35.2438 33.5162 35.2438C32.8226 35.2021 32.3948 34.6825 32.3948 34.0098ZM22.694 32.0149C21.6132 32.0149 20.8385 32.8129 20.8385 34.0052C20.8385 35.2021 21.6132 35.9954 22.7346 35.9954C23.275 35.9954 23.8154 35.8376 24.2433 35.4758L23.856 34.8773C23.5452 35.1186 23.1579 35.2763 22.7751 35.2763C22.2707 35.2763 21.7708 35.0351 21.6537 34.3624H24.3964C24.3964 34.2418 24.3964 34.1629 24.3964 34.0423C24.4324 32.8129 23.7344 32.0149 22.694 32.0149ZM22.694 32.734C23.1984 32.734 23.5452 33.0541 23.6218 33.6479H21.6897C21.7663 33.133 22.1131 32.734 22.694 32.734ZM42.8341 34.0098V30.5861H42.0235V32.5763C41.7533 32.2191 41.366 32.0196 40.8616 32.0196C39.8167 32.0196 39.0061 32.8546 39.0061 34.0098C39.0061 35.1649 39.8167 36 40.8616 36C41.402 36 41.7893 35.8005 42.0235 35.4433V35.9211H42.8341V34.0098ZM39.8573 34.0098C39.8573 33.3325 40.2806 32.7758 40.9787 32.7758C41.6362 32.7758 42.1 33.2954 42.1 34.0098C42.1 34.6871 41.6362 35.2438 40.9787 35.2438C40.2806 35.2021 39.8573 34.6825 39.8573 34.0098ZM12.7185 34.0098V32.0985H11.9079V32.5763C11.6377 32.2191 11.2504 32.0196 10.746 32.0196C9.70113 32.0196 8.89048 32.8546 8.89048 34.0098C8.89048 35.1649 9.70113 36 10.746 36C11.2864 36 11.6737 35.8005 11.9079 35.4433V35.9211H12.7185V34.0098ZM9.70563 34.0098C9.70563 33.3325 10.129 32.7758 10.827 32.7758C11.4846 32.7758 11.9484 33.2954 11.9484 34.0098C11.9484 34.6871 11.4846 35.2438 10.827 35.2438C10.129 35.2021 9.70563 34.6825 9.70563 34.0098Z" fill="black"/>
<path d="M28.5713 3.06649H16.3936V25.6036H28.5713V3.06649Z" fill="#FF5A00"/>
<path d="M17.2038 14.335C17.2038 9.75618 19.2934 5.69227 22.5 3.06649C20.1401 1.15515 17.1632 0 13.9161 0C6.22398 0 0 6.41134 0 14.335C0 22.2588 6.22398 28.6701 13.9161 28.6701C17.1632 28.6701 20.1401 27.5149 22.5 25.6036C19.2889 23.0149 17.2038 18.9139 17.2038 14.335Z" fill="#EB001B"/>
<path d="M45 14.335C45 22.2588 38.776 28.6701 31.0839 28.6701C27.8368 28.6701 24.8599 27.5149 22.5 25.6036C25.7471 22.9732 27.7962 18.9139 27.7962 14.335C27.7962 9.75618 25.7066 5.69227 22.5 3.06649C24.8554 1.15515 27.8323 0 31.0794 0C38.776 0 45 6.45309 45 14.335Z" fill="#F79E1B"/>
</g>
<defs>
<clipPath id="clip0_21_3005">
<rect width="45" height="36" fill="white"/>
</clipPath>
</defs>
</svg>
