<svg width="76" height="20" viewBox="0 0 76 20" fill="none" xmlns="http://www.w3.org/2000/svg">
<path d="M24.3026 3.99956C24.1462 3.99956 24.0133 4.11227 23.9889 4.26575L22.1784 15.663C22.1718 15.7046 22.1744 15.7471 22.1859 15.7877C22.1975 15.8282 22.2178 15.8658 22.2454 15.8978C22.273 15.9299 22.3072 15.9556 22.3458 15.9732C22.3843 15.9909 22.4263 16 22.4687 16H24.6159C24.7721 16 24.9052 15.8871 24.9296 15.7338L25.4615 12.3869C25.4857 12.2337 25.6188 12.1207 25.7752 12.1207H27.7273C30.0082 12.1207 31.9444 10.4688 32.2981 8.23033C32.6547 5.97294 30.878 4.00446 28.3599 3.99956H24.3026ZM26.3898 6.54386H27.9517C29.2376 6.54386 29.6564 7.29699 29.524 8.12987C29.3915 8.96453 28.7412 9.57933 27.4973 9.57933H25.9076L26.3898 6.54386ZM36.6651 7.3186C36.1229 7.3206 35.4991 7.43086 34.7987 7.72044C33.1921 8.38514 32.4206 9.75887 32.093 10.7604C32.093 10.7604 31.0502 13.8159 33.4062 15.4946C33.4062 15.4946 35.5913 17.1106 38.051 15.395L38.0086 15.663C38.0021 15.7046 38.0046 15.7471 38.0162 15.7876C38.0277 15.8281 38.048 15.8657 38.0755 15.8977C38.103 15.9297 38.1372 15.9554 38.1757 15.9731C38.2142 15.9907 38.2561 15.9999 38.2986 16H40.3369C40.4933 16 40.6261 15.8871 40.6506 15.7338L41.8905 7.92894C41.8971 7.88731 41.8946 7.84475 41.8831 7.80418C41.8716 7.76361 41.8513 7.726 41.8238 7.69393C41.7962 7.66186 41.762 7.63609 41.7235 7.61841C41.6849 7.60072 41.643 7.59153 41.6005 7.59147H39.5622C39.4058 7.59147 39.2727 7.70441 39.2485 7.85766L39.1818 8.27777C39.1818 8.27777 38.2918 7.31258 36.6651 7.3186ZM36.7317 9.78381C36.9658 9.78381 37.1799 9.81589 37.372 9.87715C38.2514 10.1574 38.7501 10.996 38.6058 11.9051C38.4278 13.0244 37.503 13.8486 36.317 13.8486C36.0832 13.8486 35.8691 13.8168 35.6768 13.7555C34.7976 13.4753 34.2958 12.6366 34.4401 11.7276C34.618 10.6082 35.5457 9.78381 36.7317 9.78381Z" fill="#003087"/>
<path d="M53.6552 3.99956C53.4987 3.99956 53.3659 4.11227 53.3414 4.26575L51.5309 15.663C51.5243 15.7046 51.5269 15.7471 51.5385 15.7877C51.55 15.8282 51.5703 15.8658 51.5979 15.8978C51.6255 15.9299 51.6598 15.9556 51.6983 15.9732C51.7369 15.9909 51.7788 16 51.8213 16H53.9684C54.1246 16 54.2577 15.8871 54.2822 15.7338L54.814 12.3869C54.8382 12.2337 54.9713 12.1207 55.1277 12.1207H57.0799C59.3608 12.1207 61.2967 10.4688 61.6502 8.23033C62.007 5.97294 60.2306 4.00446 57.7125 3.99956H53.6552ZM55.7424 6.54386H57.3043C58.5901 6.54386 59.0089 7.29699 58.8765 8.12987C58.7441 8.96453 58.094 9.57933 56.8498 9.57933H55.2601L55.7424 6.54386ZM66.0174 7.3186C65.4752 7.3206 64.8514 7.43086 64.151 7.72044C62.5445 8.38514 61.7729 9.75887 61.4453 10.7604C61.4453 10.7604 60.4029 13.8159 62.759 15.4946C62.759 15.4946 64.9436 17.1106 67.4036 15.395L67.3612 15.663C67.3546 15.7046 67.3572 15.7471 67.3687 15.7877C67.3803 15.8282 67.4006 15.8658 67.4282 15.8978C67.4558 15.9299 67.49 15.9556 67.5286 15.9732C67.5672 15.9909 67.6091 16 67.6516 16H69.6896C69.8461 16 69.9789 15.8871 70.0034 15.7338L71.2437 7.92894C71.2503 7.88728 71.2478 7.84468 71.2363 7.80407C71.2247 7.76347 71.2045 7.72584 71.1769 7.69376C71.1493 7.66168 71.115 7.63593 71.0764 7.61827C71.0378 7.60061 70.9958 7.59147 70.9533 7.59147H68.915C68.7586 7.59147 68.6255 7.70441 68.6013 7.85766L68.5346 8.27777C68.5346 8.27777 67.6442 7.31258 66.0174 7.3186ZM66.0841 9.78381C66.3181 9.78381 66.5322 9.81589 66.7243 9.87715C67.6038 10.1574 68.1024 10.996 67.9581 11.9051C67.7801 13.0244 66.8554 13.8486 65.6693 13.8486C65.4355 13.8486 65.2214 13.8168 65.0291 13.7555C64.1499 13.4753 63.6481 12.6366 63.7924 11.7276C63.9704 10.6082 64.8981 9.78381 66.0841 9.78381Z" fill="#0070E0"/>
<path d="M42.8573 7.59147C42.6957 7.59147 42.5808 7.74807 42.6302 7.90065L44.8649 14.784L42.8443 18.0277C42.7462 18.1852 42.8602 18.3886 43.0467 18.3886H45.4349C45.5032 18.3885 45.5703 18.371 45.6298 18.3377C45.6893 18.3043 45.7391 18.2564 45.7744 18.1984L52.0155 7.95011C52.1113 7.79262 51.9968 7.59125 51.8115 7.59125H49.4235C49.3546 7.59131 49.2868 7.60919 49.2269 7.64313C49.167 7.67707 49.1171 7.7259 49.082 7.78482L46.6254 11.9018L45.3783 7.81534C45.3377 7.68236 45.2141 7.59125 45.0743 7.59125L42.8573 7.59147Z" fill="#003087"/>
<path d="M73.5595 3.99956C73.4033 3.99956 73.2702 4.1125 73.2458 4.26575L71.4348 15.6625C71.4281 15.7042 71.4307 15.7468 71.4422 15.7874C71.4537 15.828 71.474 15.8656 71.5016 15.8977C71.5292 15.9298 71.5635 15.9555 71.6021 15.9732C71.6407 15.9909 71.6827 16 71.7252 16H73.8723C74.0285 16 74.1616 15.8871 74.186 15.7338L75.9966 4.33659C76.0031 4.29499 76.0006 4.25248 75.989 4.21196C75.9775 4.17145 75.9572 4.13389 75.9297 4.10187C75.9022 4.06985 75.868 4.04413 75.8294 4.02647C75.7909 4.00881 75.749 3.99963 75.7066 3.99956H73.5595Z" fill="#0070E0"/>
<path d="M6.40214 3.99956C6.26383 3.99967 6.13009 4.04875 6.02496 4.13796C5.91982 4.22717 5.85017 4.35067 5.82854 4.48628L4.87549 10.4864C4.91992 10.2062 5.16317 9.99966 5.44907 9.99966H8.24185C11.0526 9.99966 13.4376 7.96436 13.8734 5.20622C13.9058 5.0003 13.9242 4.79245 13.9284 4.58407C13.2141 4.21229 12.375 3.99956 11.4556 3.99956H6.40214Z" fill="#001C64"/>
<path d="M13.9283 4.58429C13.9241 4.79267 13.9058 5.00053 13.8733 5.20645C13.4375 7.96459 11.0523 9.99989 8.24178 9.99989H5.449C5.16333 9.99989 4.91985 10.2062 4.87542 10.4866L3.99909 16.0002L3.45019 19.4591C3.43948 19.526 3.44349 19.5943 3.46197 19.6594C3.48045 19.7246 3.51295 19.785 3.55722 19.8364C3.60149 19.8879 3.65648 19.9292 3.71839 19.9575C3.78031 19.9858 3.84767 20.0005 3.91584 20.0004H6.94716C7.08548 20.0003 7.21921 19.9513 7.32435 19.862C7.42948 19.7728 7.49912 19.6493 7.52075 19.5137L8.31919 14.4868C8.34083 14.3511 8.41054 14.2276 8.51577 14.1384C8.621 14.0491 8.75485 14.0001 8.89324 14.0001H10.678C13.4887 14.0001 15.8737 11.9648 16.3095 9.20666C16.619 7.2491 15.6257 5.46774 13.9283 4.58429Z" fill="#0070E0"/>
<path d="M2.95818 0.000228882C2.67251 0.000228882 2.42903 0.206499 2.3846 0.486501L0.00585444 15.4591C-0.0392518 15.7434 0.182022 16.0004 0.471958 16.0004H3.99945L4.87532 10.4868L5.82837 4.48672C5.85 4.35111 5.91965 4.22761 6.02479 4.1384C6.12992 4.04919 6.26366 4.00011 6.40197 4H11.4554C12.3751 4 13.2139 4.21295 13.9282 4.58451C13.9771 2.0734 11.8897 0.000228882 9.0197 0.000228882H2.95818Z" fill="#003087"/>
</svg>
