<svg width="64" height="64" viewBox="0 0 64 64" fill="none" xmlns="http://www.w3.org/2000/svg">
<circle opacity="0.1" cx="32" cy="32" r="32" fill="#06A656"/>
<path d="M31.823 35.5853C33.8119 35.5853 35.4242 33.973 35.4242 31.9841C35.4242 29.9951 33.8119 28.3828 31.823 28.3828C29.834 28.3828 28.2217 29.9951 28.2217 31.9841C28.2217 33.973 29.834 35.5853 31.823 35.5853Z" fill="#06A656"/>
<path d="M41.3848 27.7066H41.3839C40.2193 27.7066 39.2743 28.6517 39.2743 29.8171V31.8891C39.2743 35.9719 35.9634 39.2837 31.8796 39.2837C27.7956 39.2837 24.4841 35.9718 24.4841 31.8891V29.8171C24.4841 28.6508 23.538 27.7066 22.3737 27.7066C21.2091 27.7066 20.2641 28.6517 20.2641 29.8171V31.8506C20.2641 35.6376 22.0765 39.0012 24.8809 41.1213C24.961 41.1819 25.0261 41.2603 25.0709 41.3503C25.1156 41.4402 25.1389 41.5394 25.1389 41.6399V47.3485C25.1389 47.7083 25.4306 48 25.7904 48H37.8488C38.2087 48 38.5003 47.7083 38.5003 47.3485V41.6979C38.5003 41.5968 38.5239 41.4971 38.5692 41.4066C38.6145 41.3162 38.6803 41.2376 38.7613 41.1771C41.6357 39.0308 43.4944 35.5798 43.4944 31.7252V29.8171C43.4943 28.6517 42.5493 27.7066 41.3848 27.7066ZM28.4548 22.082C28.5666 22.2179 28.6235 22.3906 28.6145 22.5663L28.4922 24.9269C28.4656 25.4397 28.9789 25.8077 29.456 25.618L31.619 24.7583C31.7861 24.6918 31.9723 24.6918 32.1395 24.7583L34.3025 25.618C34.7796 25.8077 35.2928 25.4397 35.2662 24.9269L35.144 22.5663C35.1348 22.3906 35.1918 22.2178 35.3036 22.082L36.765 20.3069C37.0885 19.9141 36.9015 19.3185 36.4117 19.1809L34.1412 18.5429C33.978 18.4971 33.8368 18.3939 33.7435 18.2524L32.4674 16.3168C32.189 15.8945 31.5694 15.8945 31.2909 16.3168L30.0148 18.2525C29.9215 18.394 29.7803 18.4971 29.6171 18.543L27.3466 19.1809C26.8568 19.3185 26.6699 19.9141 26.9933 20.307L28.4548 22.082ZM25.3872 24.4225C25.7689 24.0409 25.7689 23.4221 25.3872 23.0404L21.5179 19.1711C21.1363 18.7895 20.5175 18.7895 20.1359 19.1711C19.7542 19.5527 19.7542 20.1715 20.1359 20.5531L24.0052 24.4225C24.3868 24.8041 25.0056 24.804 25.3872 24.4225ZM43.8643 19.1711C43.4827 18.7895 42.8639 18.7895 42.4822 19.1711L38.6129 23.0404C38.2313 23.422 38.2313 24.0408 38.6129 24.4225C38.9946 24.8041 39.6133 24.8041 39.995 24.4225L43.8643 20.5531C44.2459 20.1715 44.2459 19.5527 43.8643 19.1711Z" fill="#06A656"/>
</svg>
