<svg width="75" height="50" viewBox="0 0 75 50" fill="none" xmlns="http://www.w3.org/2000/svg">
<mask id="mask0_236_38" style="mask-type:luminance" maskUnits="userSpaceOnUse" x="8" y="15" width="59" height="20">
<path d="M38.4914 21.6408C38.4585 24.236 40.8042 25.6842 42.5712 26.5452C44.3868 27.4288 44.9966 27.9953 44.9896 28.7852C44.9758 29.9945 43.5413 30.528 42.1987 30.5488C39.8565 30.5852 38.4949 29.9165 37.4121 29.4106L36.5684 33.3588C37.6547 33.8594 39.666 34.296 41.7518 34.3151C46.6475 34.3151 49.8507 31.8984 49.8681 28.1512C49.8871 23.3957 43.2902 23.1324 43.3352 21.0068C43.3508 20.3623 43.9658 19.6746 45.3136 19.4996C45.9806 19.4112 47.8221 19.3437 49.9097 20.3051L50.7291 16.4852C49.6065 16.0764 48.1634 15.6848 46.3669 15.6848C41.7587 15.6848 38.5174 18.1344 38.4914 21.6408ZM58.6028 16.014C57.7089 16.014 56.9553 16.5354 56.6192 17.3358L49.6255 34.0344H54.5178L55.4914 31.344H61.4699L62.0347 34.0344H66.3467L62.5839 16.014H58.6028ZM59.2871 20.882L60.699 27.6488H56.8323L59.2871 20.882ZM32.5597 16.014L28.7033 34.0344H33.3652L37.2198 16.014H32.5597ZM25.663 16.014L20.8105 28.2794L18.8477 17.8503C18.6173 16.6862 17.7078 16.014 16.6978 16.014H8.76518L8.6543 16.5372C10.2828 16.8906 12.133 17.4605 13.2538 18.0704C13.9398 18.4428 14.1356 18.7685 14.3608 19.6538L18.0786 34.0344H23.0055L30.5588 16.014H25.663Z" fill="white"/>
</mask>
<g mask="url(#mask0_236_38)">
<path d="M2.61328 17.9098L59.4573 -3.0245L72.3891 32.0907L15.5456 53.025" fill="url(#paint0_linear_236_38)"/>
</g>
<defs>
<linearGradient id="paint0_linear_236_38" x1="13.8808" y1="33.7488" x2="62.503" y2="15.842" gradientUnits="userSpaceOnUse">
<stop stop-color="#222357"/>
<stop offset="1" stop-color="#254AA5"/>
</linearGradient>
</defs>
</svg>
